{"title":"Frits.En.Freddy.2011.BDRip.XviD-EXViD","uid":6730567,"size":736360376,"categoryP":"video","categoryS":"movies","magnet":"?xt=urn:btih:5490e02e1df5ce958bbfe69b89d226adf3e343b9&amp;dn=Frits.En.Freddy.2011.BDRip.XviD-EXViD&amp;tr=udp%3A%2F%2Ftracker.openbittorrent.com%3A80&amp;tr=udp%3A%2F%2Fopen.demonii.com%3A1337&amp;tr=udp%3A%2F%2Ftracker.coppersurfer.tk%3A6969&amp;tr=udp%3A%2F%2Fexodus.desync.com%3A6969","seeders":1,"leechers":0,"uploader":"TvTeam","files":8,"time":1318122715,"description":". \n  &lt;a href=&quot;\nhttp://www.torrenting.com/&quot; rel=&quot;nofollow&quot; target=&quot;_NEW&quot;&gt;\nhttp://www.torrenting.com/&lt;/a&gt;        :     Greatest Movie Tracker on The Net!!!\n &lt;a href=&quot;\nhttp://www.Torrenting.com&quot; rel=&quot;nofollow&quot; target=&quot;_NEW&quot;&gt;\nhttp://www.Torrenting.com&lt;/a&gt;          :     Once &amp; For all ;)\n\n\n               www . Torrenting . Com \n\n(((((((((((((= Enjoy No RAR releases =))))))))))))))))))))\n\n\n...................................NFO:....................................\n\n.                                                                                                     \n       \n     \n     \n       \n       \n     \n     \n                                         \n                                         \n                EXVID                    \n                                         \n         \n                                         \n         Filled the Archives             \n                                         \n         \n                                         \n                With:                    \n                                         \n         \n                                         \n                                    \n     E240                           \n                                    \n     SP               (C) 2009      \n                                         \n     \n     \n     \n                                                                                  \n                                                                                   \n                  Frits.En.Freddy.2011.BDRip.XviD-EXViD                             \n                                                                                   \n                                                                                  \n     \n                                                                                               \nEXViD aims to iNTERNAL those releases which have been lost in the archives.\nEXViD aims to PRE non-internal releases which have poor sources and are likely skipped by others.\n &lt;a href=&quot;\nhttp://www.imdb.com/title/tt1678044/&quot; rel=&quot;nofollow&quot; target=&quot;_NEW&quot;&gt;\nhttp://www.imdb.com/title/tt1678044/&lt;/a&gt;\nSubtitles: EN, FR, NL FD\nDate: 2011.10\n\nDirector: Guy Goossens\n\nGenres: Comedy\n\nPlot:\nFrits and Freddy Frateur make their living as door-to-door bible salesmen, but the economic\ncrisis also struck the bible business. The brothers are forced to supplement their income by\noccasionally stealing some things from the homes they visit. When they target a notorious white\ncollar criminal who is shadowed around the clock by the police, things start to go wrong...\n\nCast:\nFrank Aendenboom \t ... \t Kamiel Frateur \nStijn Cole \t ... \t Gino \nDamiaan De Schrijver \t ... \t Leon \nTom Dewispelaere \t ... \t Patrick Somers \nFrank Focketijn \t ... \t Willy Faes \nEric Godon \t ... \t Rene beurlet \nTania Kloek \t ... \t Gina Mus \nWim Opbrouck \t ... \t Carlo Mus \nJaap Spijkers \t ... \t Max Den Hamer \nPeter Van den Begin \t ... \t Frits Frateur \nLucas Van den Eynde \t ... \t Sjarel Willems \nTom Van Dyck \t ... \t Freddy Frateur \nGreta Van Langhendonck \t ... \t Greta \nJan Van Looveren \t ... \t Boris \nErik Van Looy \t ... \t Hitchhiker pickup man\n\nStats:\nFormat                           : AVI\nFormat/Info                      : Audio Video Interleave\nFile size                        : 700 MiB\nDuration                         : 1h 30mn\nOverall bit rate                 : 1 085 Kbps\nWriting application              : VirtualDubMod 1.5.10.2 (build 2540/release)\nWriting library                  : VirtualDubMod build 2540/release\n\nVideo\nID                               : 0\nFormat                           : MPEG-4 Visual\nFormat profile                   : Advanced Simple@L5\nFormat settings, BVOP            : Yes\nFormat settings, QPel            : No\nFormat settings, GMC             : No warppoints\nFormat settings, Matrix          : Default (H.263)\nMuxing mode                      : Packed bitstream\nCodec ID                         : XVID\nCodec ID/Hint                    : XviD\nDuration                         : 1h 30mn\nBit rate                         : 875 Kbps\nWidth                            : 640 pixels\nHeight                           : 272 pixels\nDisplay aspect ratio             : 2.35:1\nFrame rate                       : 24.000 fps\nColor space                      : YUV\nChroma subsampling               : 4:2:0\nBit depth                        : 8 bits\nScan type                        : Progressive\nBits/(Pixel*Frame)               : 0.209\nStream size                      : 565 MiB (81%)\nWriting library                  : XviD 62\n\nAudio\nID                               : 1\nFormat                           : MPEG Audio\nFormat version                   : Version 1\nFormat profile                   : Layer 3\nMode                             : Joint stereo\nMode extension                   : MS Stereo\nCodec ID                         : 55\nCodec ID/Hint                    : MP3\nDuration                         : 1h 30mn\nBit rate mode                    : Variable\nBit rate                         : 192 Kbps\nChannel(s)                       : 2 channels\nSampling rate                    : 48.0 KHz\nStream size                      : 127 MiB (18%)\nAlignment                        : Aligned on interleaves\nInterleave, duration             : 24 ms (0.58 video frame)\nInterleave, preload duration     : 93 ms\nWriting library                  : LAME3.90.\nEncoding settings                : -m j -V 4 -q 2 -lowpass 19.6 --abr 192\n\n\n\n\nRelease notes:\nOnly VeDeTT &amp; REDESiGNED are allowed to use our source.\n\nenjoy!\n\nLooking for:\n75TB+ Archives\nDUTCH/FLEMiSH Archives\n                                                                                                    \nGreets: CRBS EPiSODE FiCO FLS iLS KLASSiGER LiPSYNC MADE NODLABS RUNNER SPRiNTER      \n   \n\n                                                                    ASCII DONE BY XX^NFO 2oo9","torrent":{"xt":"urn:btih:5490e02e1df5ce958bbfe69b89d226adf3e343b9","amp;dn":"Frits.En.Freddy.2011.BDRip.XviD-EXViD","amp;tr":["udp%3A%2F%2Ftracker.openbittorrent.com%3A80","udp%3A%2F%2Fopen.demonii.com%3A1337","udp%3A%2F%2Ftracker.coppersurfer.tk%3A6969","udp%3A%2F%2Fexodus.desync.com%3A6969"],"infoHash":"5490e02e1df5ce958bbfe69b89d226adf3e343b9","infoHashBuffer":{"type":"Buffer","data":[84,144,224,46,29,245,206,149,139,191,230,155,137,210,38,173,243,227,67,185]},"announce":[],"urlList":[]}}